<?xml version="1.0" encoding="UTF-8" standalone="no"?>
<svg id="svg2" xmlns="http://www.w3.org/2000/svg" viewBox="0 0 473 473" height="473" width="473" xml:space="preserve"
     version="1.1">
    <defs id="defs6">
        <clipPath id="clipPath18"><path id="path16" d="M 0,792 H 612 V 0 H 0 Z"/></clipPath>
    </defs>
    <g id="g10" transform="matrix(1.3333333,0,0,-1.3333333,-172.2288,762.91331)">
        <g id="g12">
            <g clip-path="url(#clipPath18)" id="g14">
                <g transform="translate(479.1289,394.7539)" id="g20">
                    <path id="path22"
                          style="fill:#231f20;fill-opacity:1;fill-rule:nonzero;stroke:none"
                          d="m 0,0 c 0,-95.284 -77.244,-172.527 -172.527,-172.527 -95.283,0 -172.526,77.243 -172.526,172.527 0,95.283 77.243,172.526 172.526,172.526 C -77.244,172.526 0,95.283 0,0"
                    />
                </g>
                <g id="g24">
                    <path id="path26" transform="translate(306.6016,562.375)"
                          style="fill:#ffe600;fill-opacity:1;fill-rule:nonzero;stroke:none"
                          d="m 0,0 c -92.426,0 -167.621,-75.194 -167.621,-167.621 0,-92.428 75.195,-167.622 167.621,-167.622 92.428,0 167.622,75.194 167.622,167.622 C 167.622,-75.194 92.428,0 0,0 m 0,-345.053 c -97.835,0 -177.43,79.596 -177.43,177.432 0,97.835 79.595,177.431 177.43,177.431 97.836,0 177.432,-79.596 177.432,-177.431 0,-97.836 -79.596,-177.432 -177.432,-177.432"
                    />
                </g>
                <g id="g28">
                    <path id="path30" transform="translate(306.8867,560)"
                          style="fill:#ffffff;fill-opacity:1;fill-rule:nonzero;stroke:none"
                          d="m 0,0 c -91.274,0 -165.53,-74.257 -165.53,-165.531 0,-91.276 74.256,-165.533 165.53,-165.533 91.275,0 165.533,74.257 165.533,165.533 C 165.533,-74.257 91.275,0 0,0 m 0,-333.564 c -92.652,0 -168.03,75.378 -168.03,168.033 C -168.03,-72.878 -92.652,2.5 0,2.5 92.654,2.5 168.033,-72.878 168.033,-165.531 168.033,-258.186 92.654,-333.564 0,-333.564"
                    />
                </g>
                <g id="g32">
                    <path id="path34" transform="translate(193.2715,374.707)"
                          style="fill:#9f2020;fill-opacity:1;fill-rule:nonzero;stroke:none"
                          d="M 0,0 C 4.706,3.97 23.117,10.078 28.692,11.909 31.05,9.049 40.311,-12.316 40.849,-13.445 41.389,-14.574 -1.153,-2.674 0,0"
                    />
                </g>
                <g id="g36" transform="translate(195.4844,374.5068)">
                    <path id="path38"
                          style="fill:#ffe600;fill-opacity:1;fill-rule:nonzero;stroke:none"
                          d="M 0,0 C 5.336,-2.934 28.662,-9.804 36.267,-11.491 30.969,0.456 27.492,7.797 25.903,10.393 9.57,4.987 2.802,1.76 0,0 m 38.455,-14.771 c -2.17,0 -39.131,9.732 -41.812,13.808 -0.36,0.547 -0.428,1.18 -0.188,1.737 0.089,0.207 0.225,0.39 0.397,0.535 3.345,2.822 13.161,6.92 29.174,12.178 0.569,0.186 1.191,0.005 1.572,-0.455 1.872,-2.27 7.138,-13.907 11.517,-23.791 0.45,-1.015 0.747,-1.686 0.83,-1.861 0.215,-0.449 0.184,-1.014 -0.081,-1.435 -0.169,-0.267 -0.576,-0.716 -1.409,-0.716"
                    />
                </g>
                <g id="g40" transform="translate(419.2822,374.5967)">
                    <path id="path42"
                          style="fill:#9f2020;fill-opacity:1;fill-rule:nonzero;stroke:none"
                          d="M 0,0 C -4.706,3.97 -23.117,10.079 -28.692,11.909 -31.051,9.05 -40.311,-12.315 -40.85,-13.445 -41.39,-14.574 1.153,-2.674 0,0"
                    />
                </g>
                <g id="g44" transform="translate(391.166,384.7891)">
                    <path id="path46"
                          style="fill:#ffe600;fill-opacity:1;fill-rule:nonzero;stroke:none"
                          d="m 0,0 c -1.589,-2.595 -5.066,-9.938 -10.363,-21.884 7.603,1.688 30.93,8.558 36.266,11.491 C 23.101,-8.631 16.331,-5.401 0,0 m -12.552,-25.163 v 0 c -0.833,0 -1.24,0.448 -1.409,0.717 -0.266,0.421 -0.296,0.985 -0.081,1.434 0.083,0.174 0.38,0.846 0.831,1.863 4.378,9.883 9.644,21.519 11.516,23.789 0.38,0.461 1.005,0.641 1.571,0.455 16.009,-5.255 25.825,-9.353 29.176,-12.179 0.172,-0.145 0.307,-0.327 0.396,-0.534 0.24,-0.558 0.172,-1.191 -0.187,-1.737 -2.682,-4.078 -39.64,-13.808 -41.813,-13.808"
                    />
                </g>
                <g transform="translate(444.2539,472.9761)" id="g48">
                    <path id="path50"
                          style="fill:#386ab3;fill-opacity:1;fill-rule:nonzero;stroke:none"
                          d="M 0,0 -137.652,-238.421 -275.305,0 Z"
                    />
                </g>
                <g id="g52" transform="translate(176.8374,468.4219)">
                    <path id="path54"
                          style="fill:#ffe600;fill-opacity:1;fill-rule:nonzero;stroke:none"
                          d="M 0,0 129.765,-224.759 259.528,0 Z m 129.765,-238.422 c -1.627,0 -3.131,0.868 -3.945,2.277 L -11.833,2.277 c -0.813,1.409 -0.813,3.145 0,4.555 0.814,1.409 2.318,2.276 3.945,2.276 h 275.305 c 1.626,0 3.13,-0.867 3.944,-2.276 0.813,-1.41 0.813,-3.146 0,-4.555 L 133.708,-236.145 c -0.813,-1.409 -2.316,-2.277 -3.943,-2.277"
                    />
                </g>
                <g transform="translate(164.7725,476.2178)" id="g56">
                    <path id="path58"
                          style="fill:#ffffff;fill-opacity:1;fill-rule:nonzero;stroke:none"
                          d="M 0,0 141.83,-245.656 283.658,0 Z m 141.83,-249.406 c -0.447,0 -0.86,0.238 -1.083,0.625 L -3.248,0.625 c -0.223,0.387 -0.223,0.863 0,1.25 0.224,0.387 0.636,0.625 1.083,0.625 h 287.988 c 0.447,0 0.86,-0.238 1.083,-0.625 0.223,-0.387 0.223,-0.863 0,-1.25 L 142.912,-248.781 c -0.224,-0.387 -0.636,-0.625 -1.082,-0.625"
                    />
                </g>
                <g transform="translate(184.5815,451.9976)" id="g60">
                    <path id="path62"
                          style="fill:#386ab3;fill-opacity:1;fill-rule:nonzero;stroke:none"
                          d="M 0,0 189.289,-109.287"
                    />
                </g>
                <g transform="translate(371.0986,337.9102)" id="g64">
                    <path id="path66"
                          style="fill:#ffe600;fill-opacity:1;fill-rule:nonzero;stroke:none"
                          d="m 0,0 -189.289,109.286 5.544,9.603 L 5.543,9.602 Z"
                    />
                </g>
                <g transform="translate(194.4805,469.1436)" id="g68">
                    <path id="path70"
                          style="fill:#386ab3;fill-opacity:1;fill-rule:nonzero;stroke:none"
                          d="M 0,0 189.289,-109.286"
                    />
                </g>
                <g transform="translate(380.998,355.0566)" id="g72">
                    <path id="path74"
                          style="fill:#ffe600;fill-opacity:1;fill-rule:nonzero;stroke:none"
                          d="m 0,0 -189.29,109.286 5.544,9.602 L 5.543,9.602 Z"
                    />
                </g>
                <g transform="translate(261.2856,458.1069)" id="g76">
                    <path id="path78"
                          style="fill:#ffffff;fill-opacity:1;fill-rule:nonzero;stroke:none"
                          d="M 0,0 C 1.042,-5.361 3,-10.515 7.459,-13.331 3.164,-14.89 1.322,-20.223 0,-29.075 -1.637,-20.73 -3.951,-14.83 -8.4,-13.331 -5.61,-12.255 -0.765,-6.689 0,0"
                    />
                </g>
                <g transform="translate(255.0039,444.8599)" id="g80">
                    <path id="path82"
                          style="fill:#231f20;fill-opacity:1;fill-rule:nonzero;stroke:none"
                          d="M 0,0 C 2.662,-1.71 4.616,-5.138 6.156,-10.819 7.268,-5.645 8.888,-1.82 11.818,0.072 9.35,2.096 7.549,5.01 6.303,9.013 4.881,5.028 2.292,1.712 0,0 m 6.281,-16.828 c -0.476,0 -0.888,0.337 -0.981,0.807 -1.799,9.17 -4.185,13.792 -7.738,14.989 -0.399,0.135 -0.671,0.505 -0.681,0.927 -0.008,0.42 0.247,0.802 0.64,0.954 2.313,0.892 7.02,5.975 7.767,12.512 0.056,0.49 0.462,0.866 0.955,0.885 0.498,0.032 0.926,-0.324 1.02,-0.808 C 8.51,7.023 10.738,2.995 14.275,0.762 14.597,0.558 14.776,0.188 14.735,-0.191 14.694,-0.571 14.44,-0.894 14.082,-1.024 10.599,-2.288 8.689,-6.48 7.271,-15.976 c -0.072,-0.481 -0.48,-0.841 -0.966,-0.852 -0.008,0 -0.016,0 -0.024,0"
                    />
                </g>
                <g transform="translate(192.7271,373.7988)" id="g84">
                    <path id="path86"
                          style="fill:#9f2020;fill-opacity:1;fill-rule:nonzero;stroke:none"
                          d="m 0,0 c 23.454,-7.058 42.458,-10.004 63.393,-10.813 -10.069,-8.201 -12.257,-24.875 -12.257,-26.485 0,-2.321 6.056,-20.94 9.214,-24.098 C 47.71,-64.959 6.812,-55.172 1.345,-47.233 -0.431,-33.501 -1.054,-3.441 0,0"
                    />
                </g>
                <g transform="translate(195.4634,327.125)" id="g88">
                    <path id="path90"
                          style="fill:#ffe600;fill-opacity:1;fill-rule:nonzero;stroke:none"
                          d="m 0,0 c 4.793,-5.985 33.566,-14.026 50.5,-14.026 1.777,0 3.334,0.093 4.656,0.28 -3.531,6.07 -8.206,20.997 -8.206,23.122 0,2.056 1.982,16.271 10.222,25.188 C 36.922,35.59 19.069,38.711 -1.564,44.811 -2.159,38.067 -1.6,12.778 0,0 m 50.5,-16.927 c -17.12,0 -48.02,8.189 -53.085,15.545 -0.131,0.19 -0.215,0.407 -0.245,0.637 -1.681,13 -2.515,43.853 -1.293,47.844 0.233,0.762 1.041,1.192 1.805,0.964 22.227,-6.689 41.077,-9.905 63.03,-10.752 0.603,-0.024 1.129,-0.417 1.32,-0.99 0.191,-0.572 0.008,-1.203 -0.46,-1.585 C 52.178,27.085 49.85,11.347 49.85,9.376 c 0.019,-1.872 5.889,-20.173 8.789,-23.073 0.364,-0.365 0.508,-0.894 0.378,-1.392 -0.13,-0.498 -0.514,-0.89 -1.01,-1.03 -1.903,-0.536 -4.429,-0.808 -7.507,-0.808"
                    />
                </g>
                <g transform="translate(256.1196,362.9863)" id="g92">
                    <path id="path94"
                          style="fill:#9f2020;fill-opacity:1;fill-rule:nonzero;stroke:none"
                          d="m 0,0 c -23.455,-10.463 -49.006,-13.018 -69.941,-13.826 10.068,-8.201 20.786,-19.88 20.786,-21.491 0,-2.322 -13.063,-24.602 -16.221,-27.759 12.64,-3.564 56.225,4.08 64.231,10.924 C 0.631,-38.419 1.054,-3.441 0,0"
                    />
                </g>
                <g transform="translate(193.3218,300.8535)" id="g96">
                    <path id="path98"
                          style="fill:#ffe600;fill-opacity:1;fill-rule:nonzero;stroke:none"
                          d="m 0,0 c 1.772,-0.265 3.972,-0.398 6.575,-0.398 17.865,0 46.826,6.06 53.712,11.146 1.542,12.704 1.967,41.654 1.353,49.296 C 39.218,50.443 15.574,47.916 -3.367,47.017 4.714,39.986 15.093,29.35 15.093,26.815 15.093,24.04 4.51,6.311 0,0 M 6.576,-3.299 H 6.575 c -4.075,0 -7.287,0.322 -9.547,0.96 -0.495,0.14 -0.88,0.531 -1.009,1.029 -0.13,0.498 0.013,1.029 0.377,1.392 3.161,3.16 14.957,23.657 15.764,26.644 -1.057,2.207 -10.808,12.791 -20.219,20.456 -0.468,0.381 -0.651,1.012 -0.46,1.585 0.191,0.572 0.717,0.965 1.32,0.989 19.721,0.762 45.433,3.008 69.406,13.701 0.379,0.169 0.814,0.169 1.191,-0.004 0.379,-0.172 0.665,-0.498 0.787,-0.895 C 65.355,58.734 64.852,23.412 63.091,9.795 63.045,9.438 62.869,9.111 62.595,8.878 55.529,2.837 24.046,-3.299 6.576,-3.299"
                    />
                </g>
                <g transform="translate(419.8262,373.6895)" id="g100">
                    <path id="path102"
                          style="fill:#9f2020;fill-opacity:1;fill-rule:nonzero;stroke:none"
                          d="m 0,0 c -23.454,-7.059 -42.458,-10.004 -63.393,-10.813 10.068,-8.202 12.257,-24.875 12.257,-26.486 0,-2.32 -6.056,-20.941 -9.215,-24.098 12.641,-3.563 53.539,6.225 59.005,14.163 C 0.431,-33.502 1.054,-3.441 0,0"
                    />
                </g>
                <g transform="translate(361.9336,313.2686)" id="g104">
                    <path id="path106"
                          style="fill:#ffe600;fill-opacity:1;fill-rule:nonzero;stroke:none"
                          d="m 0,0 c 1.321,-0.186 2.879,-0.28 4.656,-0.28 16.932,0 45.706,8.04 50.5,14.026 1.6,12.778 2.159,38.067 1.564,44.812 C 36.09,52.458 18.236,49.337 -2.016,48.312 6.224,39.394 8.207,25.177 8.207,23.122 8.207,20.997 3.531,6.07 0,0 M 4.657,-3.181 H 4.656 c -3.079,0 -5.604,0.272 -7.508,0.808 -0.495,0.14 -0.879,0.532 -1.009,1.03 -0.13,0.498 0.013,1.029 0.378,1.392 2.899,2.899 8.771,21.201 8.79,23.074 0,1.97 -2.328,17.707 -11.723,25.361 -0.468,0.381 -0.65,1.012 -0.46,1.584 0.191,0.573 0.717,0.966 1.32,0.99 21.956,0.848 40.806,4.063 63.031,10.752 0.762,0.231 1.57,-0.201 1.804,-0.964 C 60.502,56.854 59.667,26.001 57.985,13 57.956,12.771 57.872,12.554 57.741,12.364 52.675,5.008 21.776,-3.181 4.657,-3.181"
                    />
                </g>
                <g transform="translate(356.4336,362.877)" id="g108">
                    <path id="path110"
                          style="fill:#9f2020;fill-opacity:1;fill-rule:nonzero;stroke:none"
                          d="m 0,0 c 23.454,-10.464 49.007,-13.018 69.939,-13.826 -10.066,-8.202 -20.784,-19.881 -20.784,-21.491 0,-2.322 13.063,-24.603 16.221,-27.76 C 52.735,-66.641 9.151,-58.997 1.145,-52.152 -0.631,-38.42 -1.054,-3.442 0,0"
                    />
                </g>
                <g transform="translate(358.9434,311.4922)" id="g112">
                    <path id="path114"
                          style="fill:#ffe600;fill-opacity:1;fill-rule:nonzero;stroke:none"
                          d="m 0,0 c 6.887,-5.087 35.848,-11.147 53.713,-11.147 2.602,0 4.804,0.133 6.575,0.398 -4.511,6.311 -15.093,24.04 -15.093,26.816 0,2.533 10.378,13.169 18.459,20.202 C 44.712,37.168 21.067,39.695 -1.353,49.296 -1.966,41.654 -1.541,12.704 0,0 m 53.713,-14.048 c -17.47,0 -48.953,6.137 -56.021,12.178 -0.273,0.233 -0.45,0.56 -0.496,0.917 -1.76,13.617 -2.263,48.938 -1.092,52.763 0.121,0.397 0.408,0.723 0.786,0.895 0.377,0.173 0.811,0.174 1.191,0.004 23.97,-10.693 49.682,-12.939 69.404,-13.701 0.604,-0.024 1.129,-0.417 1.321,-0.989 0.19,-0.573 0.007,-1.204 -0.46,-1.584 C 58.907,28.743 49.127,18.12 48.118,15.958 c 0.676,-2.722 12.595,-23.446 15.774,-26.625 0.364,-0.363 0.507,-0.894 0.378,-1.392 -0.13,-0.498 -0.515,-0.889 -1.01,-1.029 -2.26,-0.638 -5.472,-0.96 -9.547,-0.96"
                    />
                </g>
                <g transform="translate(253.7432,516.1831)" id="g116">
                    <path id="path118"
                          style="fill:#ffe600;fill-opacity:1;fill-rule:nonzero;stroke:none"
                          d="M 0,0 C 2.763,0.035 4.11,1.548 4.04,4.539 4.057,7.546 2.693,9.042 -0.052,9.024 h -2.912 v 6.349 h 2.702 c 8.866,0 13.283,-3.375 13.248,-10.126 0.017,-4.932 -1.688,-7.722 -5.116,-8.369 3.673,-0.909 5.579,-3.926 5.719,-9.05 -0.035,-6.926 -4.46,-10.389 -13.274,-10.389 h -3.279 v 6.349 H 0.21 c 2.956,-0.036 4.442,1.556 4.46,4.774 -0.018,3.411 -1.583,5.107 -4.696,5.09 H -2.964 V 0 Z m -13.274,15.373 h 8.683 v -37.934 h -8.683 z"
                    />
                </g>
                <g transform="translate(286.2778,516.1831)" id="g120">
                    <path id="path122"
                          style="fill:#ffe600;fill-opacity:1;fill-rule:nonzero;stroke:none"
                          d="M 0,0 C 2.763,0.035 4.11,1.548 4.04,4.539 4.057,7.546 2.693,9.042 -0.052,9.024 h -2.912 v 6.349 h 2.702 c 8.866,0 13.283,-3.375 13.248,-10.126 0.017,-4.932 -1.688,-7.722 -5.116,-8.369 3.673,-0.909 5.579,-3.926 5.719,-9.05 -0.035,-6.926 -4.46,-10.389 -13.274,-10.389 h -3.279 v 6.349 H 0.21 c 2.956,-0.036 4.442,1.556 4.46,4.774 -0.018,3.411 -1.583,5.107 -4.696,5.09 H -2.964 V 0 Z m -13.274,15.373 h 8.683 v -37.934 h -8.683 z"
                    />
                </g>
                <path id="path124"
                      style="fill:#ffe600;fill-opacity:1;fill-rule:nonzero;stroke:none"
                      d="m 333.556,531.556 h 8.237 v -37.934 h -8.237 z m -7.975,-37.933 h -4.145 l -6.768,21.065 v 16.868 h 2.466 l 6.506,-26.076 6.401,26.076 h 2.518 v -17.104 z m -20.042,37.933 h 8.159 v -37.934 h -8.159 z"
                />
                <g transform="translate(355.5977,531.5562)" id="g126">
                    <path id="path128"
                          style="fill:#ffe600;fill-opacity:1;fill-rule:nonzero;stroke:none"
                          d="m 0,0 h 11.227 l 9.601,-37.934 h -9.102 l -1.837,8.001 H 2.387 l 1.285,6.244 H 8.683 L 5.666,-8.237 -0.971,-37.934 h -8.658 z"
                    />
                </g>
                <g transform="translate(223.9204,281.6816)" id="g130">
                    <path id="path132"
                          style="fill:#ffe600;fill-opacity:1;fill-rule:nonzero;stroke:none"
                          d="M 0,0 1.647,2.279 C 4.157,0.453 6.174,0.247 7.7,1.664 l 2.748,-1.986 -13.237,-18.311 -4.191,3.029 9.804,13.563 z"
                    />
                </g>
                <g transform="translate(241.6802,270.3711)" id="g134">
                    <path id="path136"
                          style="fill:#ffe600;fill-opacity:1;fill-rule:nonzero;stroke:none"
                          d="M 0,0 C 0.744,1.303 0.487,2.386 -0.771,3.248 L 1.058,6.451 C 5.465,3.896 6.619,0.772 4.52,-2.924 l -5.13,-8.98 c -2.19,-3.813 -5.525,-4.504 -10.004,-2.078 l 1.798,3.148 c 1.377,-0.655 2.441,-0.326 3.19,0.984 z m -9.394,5.133 c 1.986,3.519 5.206,4.104 9.657,1.754 L -1.566,3.685 C -2.914,4.287 -3.952,3.949 -4.681,2.674 l -5.626,-9.85 c -0.739,-1.293 -0.505,-2.363 0.704,-3.209 l -1.798,-3.147 c -4.261,2.601 -5.302,5.829 -3.124,9.683 z"
                    />
                </g>
                <g transform="translate(243.376,256.7637)" id="g138">
                    <path id="path140"
                          style="fill:#ffe600;fill-opacity:1;fill-rule:nonzero;stroke:none"
                          d="M 0,0 0.933,2.168 9.429,-1.488 8.497,-3.656 Z"
                    />
                </g>
                <g transform="translate(267.0352,265.6895)" id="g142">
                    <path id="path144"
                          style="fill:#ffe600;fill-opacity:1;fill-rule:nonzero;stroke:none"
                          d="m 0,0 0.136,0.121 4.586,-1.404 -4.297,-14.03 3.033,-0.927 -1.025,-3.348 -3.033,0.93 -1.295,-4.229 -4.676,1.433 z m -12.614,-11.465 11.367,10.326 -2.032,-6.632 -5.23,-4.804 3.436,-1.053 -1.025,-3.347 -7.5,2.297 z"
                    />
                </g>
                <g transform="translate(357.9619,265.0156)" id="g146">
                    <path id="path148"
                          style="fill:#ffe600;fill-opacity:1;fill-rule:nonzero;stroke:none"
                          d="M 0,0 C -0.424,1.053 -1.32,1.404 -2.689,1.053 L -4.004,4.598 C 0.613,6.197 3.577,5.186 4.887,1.561 L 5.327,0.374 0.521,-1.407 Z m -0.927,-13.059 c 0.433,-1.228 1.385,-1.652 2.856,-1.274 l 1.286,-3.472 c -2.193,-0.768 -4.059,-0.888 -5.599,-0.359 -1.621,0.566 -2.813,1.879 -3.577,3.94 l -3.865,10.432 c -1.285,3.557 0.407,6.261 5.075,8.113 L -3.442,0.79 c -1.49,-0.63 -2.019,-1.554 -1.589,-2.771 l 1.574,-4.249 c 0.856,1.406 2.151,2.408 3.885,3.005 3.643,1.35 6.025,0.528 7.146,-2.466 l 1.179,-3.18 c 1.435,-3.9 -0.158,-6.785 -4.776,-8.652 l -1.282,3.458 c 1.463,0.608 1.932,1.592 1.406,2.954 L 2.879,-7.814 C 2.461,-6.748 1.563,-6.498 0.185,-7.064 -1.376,-7.62 -2.197,-8.402 -2.278,-9.41 Z"
                    />
                </g>
                <g transform="translate(364.9795,267.2187)" id="g150">
                    <path id="path152"
                          style="fill:#ffe600;fill-opacity:1;fill-rule:nonzero;stroke:none"
                          d="M 0,0 -1.25,2.52 C 1.535,3.891 2.656,5.58 2.112,7.59 L 5.149,9.098 15.193,-11.142 10.561,-13.44 3.122,1.55 Z"
                    />
                </g>
                <g transform="translate(386.5391,259.6133)" id="g154">
                    <path id="path156"
                          style="fill:#ffe600;fill-opacity:1;fill-rule:nonzero;stroke:none"
                          d="m 0,0 -4.581,18.529 4.206,2.645 4.7,-18.455 z m -0.556,21.872 -11.548,-7.261 -2.012,3.201 11.561,7.27 z"
                    />
                </g>
                <g transform="translate(242.6836,322.2383)" id="g158">
                    <path id="path160"
                          style="fill:#ffffff;fill-opacity:1;fill-rule:nonzero;stroke:none"
                          d="m 0,0 c 0.435,-7.084 -3.389,-10.905 -11.467,-11.467 l -0.298,5.804 c 2.586,0.426 3.82,1.964 3.702,4.614 -0.073,3.158 -1.478,4.96 -4.216,5.406 l -0.321,6.267 c 2.001,0.689 2.937,2.277 2.809,4.765 -0.208,2.318 -1.29,3.576 -3.247,3.769 l -10e-4,0.024 -0.08,-0.004 -0.302,5.9 c 7.366,0.199 11.218,-3.01 11.557,-9.626 0.166,-3.235 -0.99,-5.755 -3.47,-7.56 C -2.087,6.574 -0.31,3.944 0,0 m -25.597,-1.312 c -0.095,3.955 1.404,6.753 4.498,8.396 -2.65,1.543 -4.058,3.931 -4.224,7.166 -0.339,6.615 3.165,10.201 10.512,10.758 l 0.303,-5.901 c -1.999,-0.38 -2.974,-1.75 -2.924,-4.111 0.131,-2.535 1.252,-4.026 3.364,-4.472 l 0.318,-6.217 c -2.731,-0.711 -3.971,-2.657 -3.718,-5.838 0.153,-2.649 1.537,-4.053 4.153,-4.211 l 0.298,-5.804 c -8.095,-0.268 -12.288,3.143 -12.58,10.234"
                    />
                </g>
                <g transform="translate(228.9199,340.7246)" id="g162">
                    <path id="path164"
                          style="fill:#231f20;fill-opacity:1;fill-rule:nonzero;stroke:none"
                          d="m 0,0 -0.604,-0.115 c -1.02,-0.195 -2.37,-0.755 -2.314,-3.36 0.112,-2.178 0.992,-3.379 2.768,-3.754 l 0.536,-0.112 v 0.004 l 0.533,0.184 c 1.684,0.579 2.416,1.855 2.305,4.017 C 2.996,-0.6 1.647,-0.173 0.652,-0.074 L 0.548,-0.064 0.015,-0.09 Z m 2.78,-24.752 0.226,-4.389 c 7.127,0.707 10.403,4.184 10.009,10.609 -0.287,3.657 -1.879,6.03 -4.868,7.242 l -1.249,0.508 1.09,0.794 c 2.282,1.661 3.316,3.924 3.163,6.916 C 10.846,2.885 7.567,5.805 1.131,5.85 L 1.355,1.477 1.363,1.478 1.385,1.328 C 2.867,1.011 4.452,-0.043 4.72,-3.03 4.885,-6.221 3.406,-7.686 1.94,-8.358 l 0.264,-5.154 c 2.007,-0.5 4.153,-1.98 4.247,-6.006 0.123,-2.787 -1.142,-4.588 -3.671,-5.234 M -1.756,5.703 C -8.152,5 -11.116,1.755 -10.811,-4.198 c 0.154,-2.991 1.414,-5.136 3.853,-6.556 l 1.166,-0.679 -1.191,-0.631 c -2.848,-1.512 -4.189,-4.037 -4.1,-7.717 0.263,-6.399 3.849,-9.516 10.959,-9.516 h 0.082 l -0.226,4.389 c -2.58,0.383 -4.023,2.047 -4.185,4.847 -0.322,4.042 1.704,5.734 3.688,6.428 l -0.261,5.086 c -1.564,0.498 -3.225,1.792 -3.391,5.019 -0.065,3.03 1.416,4.253 2.892,4.724 z m 1.632,-36.5 c -7.967,0 -12.159,3.69 -12.459,10.967 -0.091,3.788 1.203,6.623 3.85,8.455 -2.218,1.668 -3.419,4.051 -3.576,7.101 -0.362,7.069 3.408,10.953 11.205,11.544 l 0.658,0.049 V 7.32 l 0.108,0.007 0.001,-0.004 0.659,0.019 c 7.845,0.199 11.965,-3.273 12.327,-10.338 0.156,-3.05 -0.795,-5.543 -2.831,-7.429 2.821,-1.551 4.398,-4.237 4.693,-8.003 0.464,-7.555 -3.629,-11.68 -12.163,-12.273 l -0.762,-0.053 -0.371,7.235 0.661,0.11 c 2.199,0.361 3.176,1.582 3.076,3.841 -0.066,2.823 -1.206,4.31 -3.588,4.699 l -0.598,0.11 -0.563,-0.146 c -2.381,-0.62 -3.385,-2.226 -3.16,-5.053 0.132,-2.273 1.228,-3.388 3.451,-3.521 l 0.67,-0.042 0.371,-7.236 -0.764,-0.025 c -0.303,-0.01 -0.602,-0.015 -0.895,-0.015"
                    />
                </g>
                <g transform="translate(388.459,337.958)" id="g166">
                    <path id="path168"
                          style="fill:#ffffff;fill-opacity:1;fill-rule:nonzero;stroke:none"
                          d="m 0,0 c 0.027,1.775 -1.053,2.823 -3.238,3.145 l 0.252,5.903 C 4.633,8.559 8.291,5.308 7.984,-0.707 L 7.9,-2.683 l -8,0.342 z m -9.234,-18.25 c -0.121,-2.031 0.993,-3.219 3.34,-3.563 l -0.247,-5.782 c -3.623,0.221 -6.384,1.178 -8.283,2.871 -1.992,1.796 -2.915,4.41 -2.767,7.84 l 0.742,17.367 c 0.301,5.902 4.373,8.774 12.219,8.618 L -4.48,3.223 C -7.008,3.216 -8.329,2.205 -8.447,0.19 l -0.302,-7.073 c 2.084,1.507 4.555,2.167 7.415,1.981 6.064,-0.26 8.999,-2.886 8.803,-7.879 L 7.242,-18.074 C 6.948,-24.562 2.91,-27.753 -4.872,-27.648 l 0.246,5.756 c 2.476,-0.008 3.747,1.126 3.812,3.405 l 0.234,5.488 c 0.043,1.789 -1.1,2.694 -3.428,2.712 -2.584,0.142 -4.24,-0.486 -4.967,-1.889 z"
                    />
                </g>
                <g transform="translate(389.1406,336.335)" id="g170">
                    <path id="path172"
                          style="fill:#231f20;fill-opacity:1;fill-rule:nonzero;stroke:none"
                          d="M 0,0 6.501,-0.278 6.554,0.948 C 6.827,6.325 3.716,9.245 -2.952,9.862 L -3.143,5.384 C -0.471,4.757 0.09,3.016 0.068,1.611 Z m -6.005,-19.516 0.7,-0.003 c 2.072,0 3.007,0.826 3.059,2.676 l 0.235,5.499 c 0.013,0.56 -0.119,0.983 -0.406,1.279 -0.411,0.423 -1.177,0.643 -2.278,0.651 -0.26,0.014 -0.478,0.019 -0.687,0.019 -1.817,0 -2.975,-0.447 -3.532,-1.368 l -0.253,-5.896 c -0.065,-1.112 0.182,-2.419 2.701,-2.789 z m 1.417,-1.471 -0.183,-4.287 c 6.855,0.111 10.318,3.011 10.583,8.857 l 0.226,5.291 c 0.178,4.534 -2.467,6.856 -8.086,7.098 -0.315,0.02 -0.609,0.03 -0.898,0.03 -2.296,0 -4.33,-0.629 -6.045,-1.869 l -1.255,-0.907 0.368,8.62 c 0.093,1.595 0.881,3.466 3.996,3.72 l 0.188,4.413 C -12.616,9.935 -16.113,7.346 -16.382,2.068 l -0.742,-17.361 c -0.139,-3.225 0.687,-5.597 2.52,-7.251 1.626,-1.449 4.001,-2.33 7.066,-2.62 l 0.185,4.357 c -2.884,0.672 -3.407,2.637 -3.312,4.225 l 0.267,6.228 0.076,0.146 c 0.871,1.682 2.76,2.451 5.674,2.293 1.482,-0.011 2.607,-0.383 3.308,-1.106 0.573,-0.592 0.852,-1.39 0.828,-2.373 l -0.235,-5.502 c -0.068,-2.432 -1.425,-3.868 -3.841,-4.091 m -0.599,-5.791 -1.681,0.057 c -3.778,0.231 -6.718,1.26 -8.736,3.061 -2.161,1.947 -3.175,4.783 -3.018,8.431 l 0.742,17.368 c 0.323,6.358 4.696,9.484 12.983,9.335 l 0.512,-0.011 v 0.006 L -4.13,11.458 -4.131,11.452 -3.62,11.419 C 4.455,10.9 8.382,7.354 8.052,0.878 l -0.115,-2.719 -9.499,0.405 0.131,3.091 c 0.014,0.913 -0.268,2.028 -2.598,2.37 L -4.518,4.098 -5.16,4.096 C -7.894,4.088 -8.317,2.849 -8.38,1.77 l -0.241,-5.637 c 1.947,1.05 4.167,1.503 6.654,1.336 8.119,-0.348 9.652,-4.9 9.503,-8.657 L 7.31,-16.483 C 7,-23.314 2.796,-26.777 -5.187,-26.778"
                    />
                </g>
                <g transform="translate(311.957,287.0166)" id="g174">
                    <path id="path176"
                          style="fill:#231f20;fill-opacity:1;fill-rule:evenodd;stroke:none"
                          d="m 0,0 c 1.743,-4.188 -2.107,-8.995 -2.389,-9.136 -0.282,-0.14 -5.702,0.928 -6.129,5.848 C -8.811,0.092 0,0 0,0"
                    />
                </g>
                <g transform="translate(318.6152,298.0537)" id="g178">
                    <path id="path180"
                          style="fill:#9e852f;fill-opacity:1;fill-rule:nonzero;stroke:none"
                          d="m 0,0 c 0,0 -2.852,2.219 -5.828,3.248 -0.522,-0.44 -8.764,-4.844 -15.848,-4.343 0,-0.667 0.67,-7.722 4.838,-9.002 C -11.716,-11.67 -3.648,-5.942 0,0"
                    />
                </g>
                <g transform="translate(298.0933,295.875)" id="g182">
                    <path id="path184"
                          style="fill:#231f20;fill-opacity:1;fill-rule:nonzero;stroke:none"
                          d="m 0,0 c 0.307,-2.05 1.334,-6.104 3.99,-6.919 0.471,-0.144 0.992,-0.219 1.551,-0.219 4.133,0 10.155,4.068 13.564,9.051 C 18.177,2.554 16.532,3.6 14.814,4.27 12.786,3.097 6.088,0.001 0,0 M 5.541,-9.227 H 5.54 c -0.766,0 -1.494,0.105 -2.163,0.31 -5.16,1.584 -5.575,9.918 -5.575,10.001 V 2.205 L -1.08,2.126 c 6.686,-0.48 14.538,3.69 15.123,4.117 l 0.441,0.322 0.552,-0.151 C 18.139,5.341 21.042,3.098 21.164,3.003 L 21.901,2.429 21.413,1.632 C 18.206,-3.59 11.226,-9.227 5.541,-9.227"
                    />
                </g>
                <g transform="translate(310.8389,313.6348)" id="g186">
                    <path id="path188"
                          style="fill:#4e1a00;fill-opacity:1;fill-rule:nonzero;stroke:none"
                          d="m 0,0 c -0.139,-3.744 0.562,-13.41 0.813,-16.365 0.397,-4.636 -6.925,-7.77 -8.874,-3.746 -0.496,1.021 -1.204,8.267 -1.064,9.925 C -8.566,-9.518 0,0 0,0"
                    />
                </g>
                <g transform="translate(302.4814,303.1387)" id="g190">
                    <path id="path192"
                          style="fill:#231f20;fill-opacity:1;fill-rule:nonzero;stroke:none"
                          d="m 0,0 c -0.064,-2.013 0.62,-8.48 1.001,-9.273 0.564,-1.164 1.624,-1.408 2.413,-1.408 1.349,0 2.868,0.705 3.87,1.796 0.567,0.617 1.219,1.631 1.107,2.949 C 8.222,-3.96 7.639,3.77 7.564,8.443 4.741,5.304 0.896,1.022 0,0 m 3.414,-12.248 c -1.724,0 -3.117,0.835 -3.823,2.291 -0.6,1.238 -1.278,8.683 -1.139,10.334 l 0.021,0.246 0.159,0.189 c 0.56,0.672 8.793,9.819 9.143,10.209 l 1.446,1.605 -0.08,-2.159 C 8.997,6.596 9.756,-3.509 9.951,-5.803 10.077,-7.273 9.54,-8.744 8.438,-9.944 7.134,-11.365 5.209,-12.248 3.414,-12.248"
                    />
                </g>
                <g transform="translate(311.9717,334.8145)" id="g194">
                    <path id="path196"
                          style="fill:#ffe600;fill-opacity:1;fill-rule:nonzero;stroke:none"
                          d="m 0,0 c 6.78,2.241 11.185,-8.773 4.571,-16.971 -5.177,-6.416 -24.669,-16.656 -15.947,-26.057 5.863,-6.32 15.42,2.12 18.02,6.153 -0.981,-14.051 -19.747,-21.438 -28.977,-6.979 -7.197,11.274 -0.845,28.27 4.822,33.127 C -13.023,-6.879 -4.108,-1.357 0,0"
                    />
                </g>
                <g transform="translate(313.7266,334.0645)" id="g198">
                    <path id="path200"
                          style="fill:#231f20;fill-opacity:1;fill-rule:nonzero;stroke:none"
                          d="m 0,0 c -0.461,0 -0.941,-0.081 -1.427,-0.242 -3.858,-1.275 -12.678,-6.686 -17.159,-10.528 -5.654,-4.846 -11.365,-21.209 -4.622,-31.772 3.035,-4.753 7.413,-7.37 12.331,-7.37 6.247,0 11.83,4.218 13.902,9.975 -2.843,-2.785 -7.062,-5.659 -11.086,-5.659 -2.267,0 -4.231,0.877 -5.836,2.607 -1.791,1.93 -2.625,4.053 -2.478,6.309 0.367,5.636 6.677,10.872 12.243,15.493 2.488,2.065 4.839,4.016 6.136,5.623 3.516,4.357 3.604,9.415 2.132,12.494 C 3.203,-1.119 1.695,0 0,0 m -10.877,-52.002 c -5.656,0 -10.66,2.961 -14.091,8.335 -7.603,11.91 -0.978,29.341 5.022,34.483 4.722,4.048 13.737,9.563 17.863,10.926 0.698,0.231 1.398,0.347 2.083,0.347 2.532,0 4.727,-1.552 6.021,-4.258 1.754,-3.671 1.696,-9.642 -2.391,-14.708 -1.428,-1.769 -3.857,-3.784 -6.428,-5.918 -4.982,-4.136 -11.183,-9.282 -11.492,-14.02 -0.11,-1.684 0.519,-3.239 1.924,-4.753 1.211,-1.305 2.619,-1.939 4.305,-1.939 4.851,0 10.341,5.263 12.072,7.947 l 1.92,-0.637 C 5.312,-45.06 -2.071,-52.002 -10.877,-52.002"
                    />
                </g>
                <g transform="translate(310.7334,323.9297)" id="g202">
                    <path id="path204"
                          style="fill:#e3f3f4;fill-opacity:1;fill-rule:evenodd;stroke:none"
                          d="m 0,0 c 0.569,-4.714 -6.708,-7.61 -11.865,-6.086 -23.019,48.559 -22.39,126.829 -2.189,154.478 2.014,-7.613 19.193,-32.198 28.594,-36.07 C -1.325,85.718 -3.417,28.328 0,0"
                    />
                </g>
                <g transform="translate(299.9702,319.1826)" id="g206">
                    <path id="path208"
                          style="fill:#231f20;fill-opacity:1;fill-rule:nonzero;stroke:none"
                          d="m 0,0 c 0.589,-0.12 1.215,-0.181 1.868,-0.181 2.611,0 5.24,0.987 6.542,2.454 C 9.045,2.991 9.307,3.739 9.208,4.56 5.55,34.878 8.424,89.933 23.117,116.41 14.034,121.629 0.558,140.41 -3.686,149.762 -22.52,119.762 -20.91,44.816 0,0 m 1.868,-3.314 c -1.203,0 -2.352,0.159 -3.414,0.472 -0.427,0.127 -0.781,0.429 -0.972,0.832 -10.88,22.951 -17.241,54.203 -17.453,85.74 -0.205,30.549 5.558,56.842 15.415,70.333 0.357,0.488 0.961,0.729 1.555,0.616 0.594,-0.112 1.07,-0.555 1.225,-1.139 1.878,-7.098 18.729,-31.337 27.676,-35.022 0.421,-0.174 0.746,-0.522 0.89,-0.955 0.144,-0.432 0.092,-0.905 -0.141,-1.297 C 16.969,100.034 6.604,52.314 12.319,4.935 12.526,3.222 11.985,1.583 10.754,0.195 8.865,-1.937 5.376,-3.314 1.868,-3.314"
                    />
                </g>
                <g transform="translate(300.5742,330.2373)" id="g210">
                    <path id="path212"
                          style="fill:#231f20;fill-opacity:1;fill-rule:nonzero;stroke:none"
                          d="m 0,0 c -0.457,0 -0.876,0.302 -1.005,0.764 -8.827,31.576 -15.01,91.278 4.13,126.335 0.276,0.507 0.912,0.693 1.417,0.417 0.506,-0.277 0.693,-0.912 0.416,-1.418 C -13.883,91.587 -7.728,32.573 1.006,1.326 1.162,0.771 0.837,0.194 0.282,0.039 0.187,0.013 0.093,0 0,0"
                    />
                </g>
                <g transform="translate(314.8164,404.1699)" id="g214">
                    <path id="path216"
                          style="fill:#231f20;fill-opacity:1;fill-rule:nonzero;stroke:none"
                          d="m 0,0 c -0.088,-0.436 0.012,-4.157 0.012,-4.157 l -0.393,-0.696 -2.566,-1.959 -4.049,0.792 -1.697,-2.11 -2.302,0.426 -7.688,-3.57 c 0,0 0.172,1.59 0.929,3.144 -6.694,-4.148 -16.183,-1.113 -16.346,0.012 -0.502,3.451 0.301,15.255 0.421,17.402 -2.169,-0.858 -22.791,-11.627 -31.189,-22.706 -0.499,-0.658 -1.008,-3.936 2.19,-4.968 9.177,-2.959 27.301,-9.788 32.879,-16.664 0.793,-0.975 3.484,-1.27 5.834,0.726 4.89,4.153 22.545,18.2 29.102,21.336 13.011,6.222 26.811,12.099 36.351,13.398 1.989,1.283 2.067,2.047 2.614,3.747 C 42.316,6.439 33.24,12.977 29.221,15.498 24.781,18.284 16.024,23.573 12.803,23.771 11.834,23.814 9.141,23.904 7.672,23.284 6.105,22.796 6.164,21.622 5.321,19.061 4.763,17.563 0.436,4.01 -0.299,1.34 Z"
                    />
                </g>
                <g transform="translate(279.9883,411.7466)" id="g218">
                    <path id="path220"
                          style="fill:#231f20;fill-opacity:1;fill-rule:nonzero;stroke:none"
                          d="m 0,0 c -5.276,-2.68 -21.895,-11.983 -29.208,-21.629 -0.08,-0.139 -0.319,-1.02 0.012,-1.894 0.26,-0.689 0.821,-1.177 1.667,-1.449 4.427,-1.428 26.843,-8.956 33.369,-17 0.121,-0.15 0.565,-0.371 1.289,-0.371 0.599,0 1.793,0.16 3.058,1.234 4.255,3.614 22.403,18.171 29.328,21.483 16.787,8.028 28.374,12.31 36.424,13.457 1.273,0.852 1.448,1.315 1.819,2.502 -2.231,2.353 -10.133,8.112 -14.264,10.704 -8.012,5.027 -13.817,7.985 -15.928,8.115 -0.27,0.012 -0.717,0.029 -1.239,0.029 -1.54,0 -2.755,-0.155 -3.421,-0.436 L 42.811,14.71 C 42.169,14.51 42.05,14.244 41.601,12.674 41.474,12.23 41.329,11.727 41.142,11.157 40.556,9.584 36.49,-3.166 35.606,-6.266 l 0.29,-1.3 -0.043,-0.217 c -0.036,-0.292 -0.013,-2.273 0.031,-3.923 l 0.008,-0.289 -0.641,-1.134 -3.109,-2.374 -3.891,0.76 -1.692,-2.105 -2.588,0.479 -9.064,-4.209 0.199,1.839 c 0.004,0.033 0.047,0.417 0.174,0.988 -1.913,-0.735 -4.079,-1.117 -6.388,-1.117 -3.657,0 -8.925,1.151 -9.198,3.023 C -0.74,-12.86 -0.248,-4.113 0,0 m 7.129,-44.432 c -1.259,0 -2.32,0.416 -2.91,1.143 -6.155,7.585 -28.06,14.933 -32.389,16.329 -1.967,0.633 -2.751,1.948 -3.063,2.939 -0.443,1.405 -0.164,2.961 0.36,3.653 8.668,11.434 29.925,22.369 31.638,23.046 L 2.283,3.279 2.132,0.641 c -0.194,-3.18 -0.771,-12.681 -0.403,-15.93 0.669,-0.449 3.448,-1.49 7.163,-1.49 2.039,0.001 5.019,0.341 7.631,1.96 l 3.072,1.903 -1.582,-3.249 c -0.136,-0.278 -0.25,-0.558 -0.347,-0.828 l 6.029,2.8 2.017,-0.373 1.701,2.116 4.207,-0.823 2.023,1.544 0.145,0.257 c -0.037,1.451 -0.062,3.108 -0.015,3.826 l -0.32,1.436 0.069,0.25 c 0.718,2.612 5.052,16.21 5.649,17.809 0.164,0.502 0.301,0.979 0.421,1.4 0.461,1.608 0.825,2.882 2.549,3.44 0.943,0.386 2.351,0.581 4.186,0.581 0.561,0 1.041,-0.018 1.351,-0.032 C 50.251,17.08 55.94,14.244 64.604,8.806 68.257,6.515 77.769,-0.239 79.753,-2.78 L 80.094,-3.216 79.786,-4.18 C 79.288,-5.775 78.908,-6.742 76.883,-8.048 L 76.688,-8.175 76.457,-8.206 C 66.158,-9.607 50.955,-16.471 40.415,-21.511 34.19,-24.488 17.017,-38.049 11.54,-42.701 10.225,-43.818 8.659,-44.432 7.129,-44.432"
                    />
                </g>
                <g transform="translate(279.0142,395.6396)" id="g222">
                    <path id="path224"
                          style="fill:#ffffff;fill-opacity:1;fill-rule:nonzero;stroke:none"
                          d="M 0,0 C -0.04,-0.278 0,-0.86 0.12,-1.155 2.323,-2.47 7.001,-3.237 7.371,-3.306 6.468,-6.438 6.022,-16.479 7.258,-24.044 2.581,-19.154 -15.5,-11.121 -26.875,-7.202 -20.07,-4.446 -4.537,-0.311 0,0"
                    />
                </g>
                <g transform="translate(279.5322,397.4736)" id="g226">
                    <path id="path228"
                          style="fill:#ffffff;fill-opacity:1;fill-rule:nonzero;stroke:none"
                          d="M 0,0 C -1.155,-0.041 -24.169,-5.876 -28.029,-7.258 -26.776,-2.951 -0.961,13.506 0.434,13.858 0,9.325 -0.2,1.832 0,0"
                    />
                </g>
                <g transform="translate(356.8779,407.6646)" id="g230">
                    <path id="path232"
                          style="fill:#ffffff;fill-opacity:1;fill-rule:nonzero;stroke:none"
                          d="m 0,0 c -8.738,3.846 -28.999,5.458 -36.007,5.745 -0.633,0.632 -1.101,0.478 -1.639,1.471 0.461,5.212 3.647,11.253 4.387,11.742 0.74,0.49 2.604,0.767 4.174,0.257 1.077,-0.349 9.522,-4.738 15.043,-8.173 C -12.929,10.349 -0.937,2.479 0,0"
                    />
                </g>
                <g transform="translate(288.3545,370.8965)" id="g234">
                    <path id="path236"
                          style="fill:#ffffff;fill-opacity:1;fill-rule:nonzero;stroke:none"
                          d="m 0,0 c -0.474,1.57 -1.198,17.711 -0.257,21.117 3.626,-0.556 6.255,0.799 6.255,0.799 0,0 -1.599,-3.477 -0.241,-3.854 0.548,0.748 10.01,5.222 10.01,5.222 l 3.242,-0.695 1.13,2.222 4.03,-0.273 2.443,2.444 c 0,0 0.663,1.786 0.663,1.9 0,0.955 0.523,4.231 0.765,5.145 0.242,0.914 1.275,4.821 1.924,5.555 0.752,0.85 1.098,1.162 3.249,1.168 6.912,0.02 33.108,-3.278 34.526,-5.069 0,-0.575 -0.33,-0.568 -1.572,-0.688 C 64.144,34.798 50.194,32.422 31.974,22.589 22.622,17.541 10.282,7.965 0,0"
                    />
                </g>
                <g transform="translate(354.7842,423.2271)" id="g238">
                    <path id="path240"
                          style="fill:#ffffff;fill-opacity:1;fill-rule:nonzero;stroke:none"
                          d="m 0,0 c -0.456,0.576 -0.357,1.41 0.218,1.866 6.9,5.449 18.107,12.683 22.428,15.281 2.208,1.325 4.187,1.913 5.914,1.915 1.656,0.004 3.072,-0.567 4.043,-1.494 0.971,-0.925 1.495,-2.175 1.495,-3.438 0.005,-1.239 -0.522,-2.507 -1.556,-3.414 -1.033,-0.912 -2.516,-1.432 -4.311,-1.428 -0.323,0 -0.653,0.017 -0.991,0.046 -0.729,0.067 -1.267,0.714 -1.2,1.444 0.064,0.73 0.711,1.268 1.441,1.201 0.267,-0.025 0.519,-0.037 0.75,-0.037 2.604,0.083 3.153,1.198 3.212,2.188 -0.037,1.051 -0.773,2.234 -2.883,2.277 C 27.451,16.409 25.921,16.018 24.013,14.87 19.802,12.345 8.575,5.09 1.864,-0.217 V -0.219 C 1.62,-0.412 1.331,-0.504 1.042,-0.504 0.649,-0.504 0.263,-0.332 0,0"
                    />
                </g>
                <g transform="translate(383.3652,444.25)" id="g242">
                    <path id="path244"
                          style="fill:#231f20;fill-opacity:1;fill-rule:nonzero;stroke:none"
                          d="m 0,0 h -0.003 -0.024 c -2.165,-0.003 -4.494,-0.741 -6.916,-2.193 -4.076,-2.451 -15.43,-9.734 -22.636,-15.425 -0.691,-0.547 -1.126,-1.327 -1.228,-2.199 -0.102,-0.873 0.142,-1.734 0.689,-2.424 0.627,-0.792 1.567,-1.248 2.579,-1.248 0.736,0 1.46,0.252 2.038,0.708 l 0.438,0.346 c 6.573,5.131 17.342,12.104 21.503,14.6 1.82,1.095 2.993,1.258 3.531,1.258 0.291,-0.006 0.805,-0.055 0.912,-0.298 -0.099,-0.059 -0.437,-0.214 -1.263,-0.245 -0.169,0.001 -0.348,0.011 -0.534,0.028 -0.108,0.01 -0.208,0.015 -0.309,0.015 -1.715,0 -3.121,-1.288 -3.271,-2.996 -0.166,-1.798 1.167,-3.402 2.973,-3.569 0.423,-0.037 0.803,-0.054 1.171,-0.054 2.254,0 4.187,0.663 5.609,1.919 1.416,1.242 2.226,3.027 2.219,4.892 0,1.806 -0.767,3.577 -2.104,4.85 C 4.001,-0.724 2.092,0 0,0 m 0,-1.961 c 1.646,0 3.055,-0.571 4.021,-1.494 C 4.993,-4.38 5.517,-5.63 5.517,-6.893 5.521,-8.132 4.995,-9.4 3.961,-10.307 2.932,-11.216 1.456,-11.735 -0.329,-11.735 H -0.35 c -0.323,0 -0.653,0.017 -0.991,0.046 -0.729,0.067 -1.267,0.714 -1.2,1.444 0.061,0.689 0.64,1.207 1.318,1.207 0.041,0 0.082,-0.002 0.123,-0.006 0.267,-0.025 0.519,-0.037 0.75,-0.037 2.604,0.083 3.153,1.198 3.212,2.188 -0.037,1.051 -0.773,2.234 -2.883,2.277 h -0.008 c -1.109,0 -2.636,-0.392 -4.539,-1.537 -4.211,-2.525 -15.438,-9.78 -22.149,-15.087 v -0.002 c -0.244,-0.193 -0.533,-0.285 -0.822,-0.285 -0.393,0 -0.779,0.172 -1.042,0.504 -0.456,0.576 -0.357,1.41 0.218,1.866 6.9,5.449 18.107,12.683 22.428,15.282 2.208,1.324 4.187,1.912 5.914,1.914 H 0"
                    />
                </g>
                <g transform="translate(343.7393,428.2378)" id="g246">
                    <path id="path248"
                          style="fill:#ffffff;fill-opacity:1;fill-rule:nonzero;stroke:none"
                          d="m 0,0 c -0.336,0.651 -0.081,1.452 0.571,1.788 3.413,1.755 12.972,8.066 17.657,11.073 0.99,0.633 1.843,1.456 2.412,2.212 0.284,0.358 0.486,0.718 0.616,1.001 -0.756,-0.231 -2.187,-0.892 -4.103,-2.241 -0.604,-0.416 -1.43,-0.264 -1.845,0.339 -0.418,0.604 -0.266,1.431 0.338,1.848 2.821,1.908 4.577,2.757 6.146,2.806 0.546,0.005 1.174,-0.147 1.652,-0.608 0.481,-0.461 0.647,-1.095 0.64,-1.594 -0.033,-1.15 -0.569,-2.115 -1.325,-3.151 C 21.989,12.456 20.936,11.446 19.66,10.628 14.963,7.62 5.511,1.356 1.789,-0.571 1.594,-0.671 1.386,-0.719 1.181,-0.719 0.7,-0.719 0.236,-0.457 0,0"
                    />
                </g>
                <g transform="translate(365.5566,449.0249)" id="g250">
                    <path id="path252"
                          style="fill:#231f20;fill-opacity:1;fill-rule:nonzero;stroke:none"
                          d="m 0,0 h -0.009 -0.035 c -2.257,-0.069 -4.434,-1.254 -7.227,-3.143 -0.739,-0.511 -1.224,-1.261 -1.382,-2.125 -0.159,-0.865 0.03,-1.74 0.531,-2.463 0.127,-0.186 0.272,-0.356 0.433,-0.509 -0.107,-0.069 -0.214,-0.139 -0.323,-0.209 -4.852,-3.145 -11.497,-7.451 -14.131,-8.806 -0.783,-0.404 -1.36,-1.086 -1.628,-1.924 -0.267,-0.837 -0.192,-1.727 0.21,-2.508 0.569,-1.098 1.689,-1.78 2.924,-1.78 0.52,0 1.039,0.126 1.503,0.363 3.003,1.556 9.323,5.654 14.403,8.947 1.363,0.884 2.61,1.692 3.631,2.346 1.397,0.895 2.643,2.041 3.606,3.313 0.833,1.142 1.67,2.518 1.721,4.278 C 4.243,-3.033 3.79,-1.926 2.984,-1.153 2.214,-0.411 1.153,0 0,0 m 0,-1.961 c 0.54,0 1.156,-0.154 1.627,-0.608 0.48,-0.461 0.646,-1.095 0.64,-1.595 -0.034,-1.149 -0.57,-2.114 -1.326,-3.15 -0.769,-1.018 -1.823,-2.027 -3.098,-2.845 -4.697,-3.008 -14.15,-9.272 -17.871,-11.199 -0.196,-0.1 -0.404,-0.148 -0.609,-0.148 -0.48,0 -0.944,0.262 -1.18,0.719 -0.336,0.651 -0.081,1.452 0.571,1.787 3.413,1.756 12.972,8.067 17.656,11.074 0.99,0.633 1.844,1.456 2.412,2.212 0.284,0.358 0.487,0.718 0.616,1.001 -0.755,-0.231 -2.186,-0.892 -4.102,-2.242 -0.231,-0.158 -0.492,-0.234 -0.752,-0.234 -0.422,0 -0.837,0.201 -1.094,0.574 -0.418,0.604 -0.265,1.43 0.338,1.848 2.821,1.908 4.577,2.757 6.147,2.806 H 0"
                    />
                </g>
            </g>
        </g>
    </g>
</svg>